<svg width="30" height="30" viewBox="0 0 30 30" fill="none" xmlns="http://www.w3.org/2000/svg">
<path d="M12.0726 11.8858C12.0726 10.4707 11.1098 10.4707 11.1098 10.4707H10.6001H7.14893V13.5072H10.8643C11.5064 13.5069 12.0726 13.3016 12.0726 11.8858Z" fill="white"/>
<path d="M11.1102 15.605H7.14893V19.2418H10.9272C11.4956 19.2256 12.5446 19.0475 12.5446 17.474C12.5446 15.586 11.1102 15.605 11.1102 15.605Z" fill="white"/>
<path d="M21.251 13.5068C19.1491 13.5068 18.856 15.6045 18.856 15.6045H23.326C23.3263 15.6045 23.353 13.5068 21.251 13.5068Z" fill="white"/>
<path d="M15 0C6.7157 0 0 6.71601 0 15C0 23.284 6.7157 30 15 30C23.2843 30 30 23.284 30 15C30 6.71601 23.2843 0 15 0ZM18.2704 8.85361H23.8849V10.5293H18.2704V8.85361ZM15.4327 17.6428C15.4327 21.7961 11.1103 21.6595 11.1103 21.6595H7.14905H7.03274H4.02905V8.05197H7.03274H7.14905H11.11C13.262 8.05197 14.9607 9.24 14.9607 11.675C14.9607 14.1103 12.8842 14.2647 12.8842 14.2647C15.6215 14.2647 15.4327 17.6428 15.4327 17.6428ZM21.2777 19.7889C23.5396 19.7889 23.4595 18.325 23.4595 18.325H25.8543C25.8543 22.2101 21.198 21.944 21.198 21.944C15.6101 21.944 15.9695 16.742 15.9695 16.742C15.9695 16.742 15.9652 11.5142 21.1973 11.5142C26.7054 11.5142 25.9341 17.4206 25.9341 17.4206H18.883C18.883 19.9492 21.2777 19.7889 21.2777 19.7889Z" fill="white"/>
</svg>
